<?xml version="1.0" encoding="UTF-8" standalone="no"?>
<svg xmlns:rdf="http://www.w3.org/1999/02/22-rdf-syntax-ns#" xmlns="http://www.w3.org/2000/svg" height="16" width="16" version="1.0" xmlns:cc="http://creativecommons.org/ns#" xmlns:xlink="http://www.w3.org/1999/xlink" xmlns:dc="http://purl.org/dc/elements/1.1/">
 <rect style="color:#aaa" fill-opacity="0" height="97.986" width="163.31" y="-32.993" x="-62.897"/>
 <path fill="#c3c3c3" d="m3 6c-1.1046 0-2 0.8954-2 2s0.8954 2 2 2 2-0.8954 2-2-0.8954-2-2-2zm5 0c-1.1046 0-2 0.8954-2 2s0.8954 2 2 2 2-0.8954 2-2-0.8954-2-2-2zm5 0c-1.105 0-2 0.8954-2 2s0.895 2 2 2 2-0.8954 2-2-0.895-2-2-2z" fill-rule="evenodd"/>
</svg>
